<svg t="1652888649094" class="icon" viewBox="0 0 1024 1024" version="1.1" xmlns="http://www.w3.org/2000/svg" p-id="1770" width="200" height="200"><path d="M261.731343 735.522388c-3.820896 0-9.552239-1.910448-11.462686-3.820895-7.641791-7.641791-9.552239-19.104478-1.910448-26.746269l183.402985-215.880597c3.820896-3.820896 7.641791-5.731343 13.373134-7.641791 5.731343 0 9.552239 1.910448 13.373135 5.731343l179.582089 158.567164 170.029851-173.850746c7.641791-7.641791 19.104478-7.641791 26.746269 0 7.641791 7.641791 7.641791 19.104478 0 26.746269L649.552239 685.850746c-7.641791 7.641791-19.104478 7.641791-26.746269 0l-177.671642-158.567164-170.02985 200.597015c-3.820896 5.731343-7.641791 7.641791-13.373135 7.641791z" fill="#515151" p-id="1771"></path><path d="M259.820896 718.328358m-49.671642 0a49.671642 49.671642 0 1 0 99.343283 0 49.671642 49.671642 0 1 0-99.343283 0Z" fill="#515151" p-id="1772"></path><path d="M443.223881 506.268657m-49.671642 0a49.671642 49.671642 0 1 0 99.343283 0 49.671642 49.671642 0 1 0-99.343283 0Z" fill="#515151" p-id="1773"></path><path d="M638.089552 672.477612m-49.671642 0a49.671642 49.671642 0 1 0 99.343284 0 49.671642 49.671642 0 1 0-99.343284 0Z" fill="#515151" p-id="1774"></path><path d="M857.791045 962.865672h-687.761194c-63.044776 0-114.626866-51.58209-114.626866-114.626866V229.253731c0-63.044776 51.58209-114.626866 114.626866-114.626865h687.761194c63.044776 0 114.626866 51.58209 114.626865 114.626865v620.895523c0 61.134328-49.671642 112.716418-114.626865 112.716418zM170.029851 191.044776c-21.014925 0-38.208955 17.19403-38.208955 38.208955v620.895523c0 21.014925 17.19403 38.208955 38.208955 38.208955h687.761194c21.014925 0 38.208955-17.19403 38.208955-38.208955V229.253731c0-21.014925-17.19403-38.208955-38.208955-38.208955h-687.761194z" fill="#515151" p-id="1775"></path><path d="M330.507463 236.895522c-15.283582 0-28.656716-13.373134-28.656717-28.656716V89.791045c0-15.283582 13.373134-28.656716 28.656717-28.656717s28.656716 13.373134 28.656716 28.656717v118.447761c0 15.283582-11.462687 28.656716-28.656716 28.656716zM699.223881 236.895522c-15.283582 0-28.656716-13.373134-28.656717-28.656716V89.791045c0-15.283582 13.373134-28.656716 28.656717-28.656717s28.656716 13.373134 28.656716 28.656717v118.447761c0 15.283582-13.373134 28.656716-28.656716 28.656716z" fill="#515151" p-id="1776"></path><path d="M93.61194 282.746269h840.597015v57.313432h-840.597015z" fill="#515151" p-id="1777"></path></svg>